G04*
G04 #@! TF.GenerationSoftware,Altium Limited,Altium Designer,19.1.7 (138)*
G04*
G04 Layer_Physical_Order=2*
G04 Layer_Color=16711680*
%FSLAX25Y25*%
%MOIN*%
G70*
G01*
G75*
%ADD13C,0.01000*%
%ADD23C,0.00800*%
%ADD24R,0.04724X0.04724*%
%ADD25C,0.04724*%
%ADD26R,0.05906X0.05906*%
%ADD27C,0.05906*%
%ADD28C,0.05512*%
%ADD29R,0.05906X0.05906*%
%ADD30C,0.06600*%
%ADD31C,0.05000*%
D13*
X125500Y84500D02*
X126000Y85000D01*
X143000D02*
X146000D01*
X136000Y84500D02*
Y85000D01*
X163500D02*
X166000D01*
X94000D02*
X96000D01*
X45000Y5000D02*
Y6500D01*
Y5000D02*
Y7000D01*
X113500Y5000D02*
X115000D01*
D23*
X155000D02*
Y35500D01*
X181500Y67000D02*
X184000Y64500D01*
X181500Y67000D02*
Y143000D01*
X165000Y5000D02*
X181000Y21000D01*
Y36500D01*
X195500Y60000D02*
Y142500D01*
X181500Y156500D02*
X195500Y142500D01*
X147000Y156500D02*
X181500D01*
X141500Y151000D02*
X147000Y156500D01*
X119000Y61000D02*
X176567D01*
X229500Y8067D01*
X250000D01*
X250500Y8567D01*
X251500Y7567D01*
X270500D01*
X121500Y109500D02*
X146000Y85000D01*
X121500Y109500D02*
Y151000D01*
X111500Y111500D02*
X130500Y92500D01*
X111500Y111500D02*
Y151000D01*
X151500Y137000D02*
Y151000D01*
X116000Y85000D02*
Y96500D01*
X61500Y151000D02*
X116000Y96500D01*
X106000Y85000D02*
Y85750D01*
X41500Y150250D02*
X106000Y85750D01*
X41500Y150250D02*
Y151000D01*
X22153Y146847D02*
X28500Y140500D01*
X22153Y146847D02*
Y150347D01*
X21500Y151000D02*
X22153Y150347D01*
X28500Y121500D02*
Y140500D01*
Y121500D02*
X34000Y116000D01*
X51364D01*
X81500Y85864D01*
X85136D01*
X86000Y85000D01*
X31500Y150127D02*
Y151000D01*
D24*
X14000Y116000D02*
D03*
D25*
X34000D02*
D03*
X24000Y126000D02*
D03*
D26*
X11500Y151000D02*
D03*
D27*
X21500D02*
D03*
X31500D02*
D03*
X41500D02*
D03*
X51500D02*
D03*
X61500D02*
D03*
X71500D02*
D03*
X81500D02*
D03*
X91500D02*
D03*
X101500D02*
D03*
X111500D02*
D03*
X121500D02*
D03*
X131500D02*
D03*
X141500D02*
D03*
X151500D02*
D03*
X161500D02*
D03*
X229500Y53933D02*
D03*
X250500Y54433D02*
D03*
X270500Y53433D02*
D03*
Y117933D02*
D03*
X251500Y118933D02*
D03*
X229000Y117933D02*
D03*
D28*
X151500Y97000D02*
D03*
Y137000D02*
D03*
X119000Y61000D02*
D03*
Y21000D02*
D03*
X107500Y61000D02*
D03*
Y21000D02*
D03*
X96000Y61000D02*
D03*
Y21000D02*
D03*
X85500Y60500D02*
D03*
Y20500D02*
D03*
X75500Y60500D02*
D03*
Y20500D02*
D03*
X65000Y60500D02*
D03*
Y20500D02*
D03*
D29*
X229500Y8067D02*
D03*
X250500Y8567D02*
D03*
X270500Y7567D02*
D03*
Y72067D02*
D03*
X251500Y73067D02*
D03*
X229000Y72067D02*
D03*
D30*
X66000Y85000D02*
D03*
X76000D02*
D03*
X86000D02*
D03*
X96000D02*
D03*
X106000D02*
D03*
X116000D02*
D03*
X126000D02*
D03*
X136000D02*
D03*
X146000D02*
D03*
X156000D02*
D03*
X166000D02*
D03*
X176000D02*
D03*
X175000Y5000D02*
D03*
X165000D02*
D03*
X155000D02*
D03*
X145000D02*
D03*
X135000D02*
D03*
X125000D02*
D03*
X115000D02*
D03*
X105000D02*
D03*
X95000D02*
D03*
X85000D02*
D03*
X75000D02*
D03*
X65000D02*
D03*
X55000D02*
D03*
X45000D02*
D03*
X35000D02*
D03*
X25000D02*
D03*
D31*
X155000Y35500D02*
D03*
X184000Y64500D02*
D03*
X181500Y143000D02*
D03*
X181000Y36500D02*
D03*
X195500Y60000D02*
D03*
X130500Y92500D02*
D03*
M02*
