%FSTAX23Y23*%
%MOIN*%
%SFA1B1*%

%IPPOS*%
%ADD9500C,0.027560*%
%ADD9501C,0.028000*%
%ADD9502C,0.033460*%
%ADD9503C,0.035430*%
%ADD9504C,0.039370*%
%LNadafruit_feather_m0_adalogger-1*%
%LPD*%
G54D9500*
X0014Y0116D03*
X0034D03*
X0024Y0126D03*
G54D9501*
X0155Y00355D03*
X01305Y00925D03*
X0184Y00645D03*
X01955Y006D03*
X0181Y00365D03*
X01815Y0143D03*
G54D9502*
X0065Y00205D03*
X00755D03*
X00855D03*
X0096Y0021D03*
X01075D03*
X0119D03*
Y0061D03*
X01075D03*
X0096D03*
X00855Y00605D03*
X00755D03*
X0065D03*
X01515Y0097D03*
Y0137D03*
G54D9503*
X00115Y0151D03*
X00215D03*
X00315D03*
X00415D03*
X00515D03*
X00615D03*
X00715D03*
X00815D03*
X00915D03*
X01015D03*
X01115D03*
X01215D03*
X01315D03*
X01415D03*
X01515D03*
X01615D03*
X0229Y01179D03*
X02515Y01189D03*
X02705Y01179D03*
Y0072D03*
Y00534D03*
X02505Y00544D03*
X02515Y0073D03*
X0229Y0072D03*
X02295Y00539D03*
Y0008D03*
X02505Y00085D03*
X02705Y00075D03*
G54D9504*
X0025Y0005D03*
X0035D03*
X0045D03*
X0055D03*
X0065D03*
X0075D03*
X0085D03*
X0095D03*
X0105D03*
X0115D03*
X0125D03*
X0135D03*
X0145D03*
X0155D03*
X0156Y0085D03*
X0146D03*
X0136D03*
X0126D03*
X0116D03*
X0106D03*
X0096D03*
X0086D03*
X0076D03*
X0066D03*
X0166D03*
X0176D03*
X0175Y0005D03*
X0165D03*
M02*