%FSTAX23Y23*%
%MOIN*%
%SFA1B1*%

%IPPOS*%
%ADD11C,0.010000*%
%ADD15C,0.008000*%
%ADD16R,0.047240X0.047240*%
%ADD17C,0.047240*%
%ADD18R,0.059060X0.059060*%
%ADD19C,0.059060*%
%ADD20C,0.055120*%
%ADD21R,0.059060X0.059060*%
%ADD22C,0.066000*%
%ADD23C,0.050000*%
%LNadafruit_feather_m0_adalogger-1*%
%LPD*%
G54D11*
X0076Y0082D02*
Y0085D01*
X0025Y0005D02*
X0028D01*
X0025D02*
X00255D01*
X0156Y0083D02*
Y0085D01*
X0135D02*
X0136D01*
X0075Y0005D02*
X0078D01*
X0085D02*
X0088D01*
X0085D02*
X0086D01*
X0145D02*
Y00075D01*
X0135Y0005D02*
X0137D01*
G54D15*
X0155Y00355D02*
X0184Y00645D01*
X01695Y0156D02*
X0182Y01435D01*
X01365Y0156D02*
X01695D01*
X0181Y00365D02*
X01955Y0051D01*
Y006*
X01315Y0151D02*
X01365Y0156D01*
X0035Y0005D02*
Y00305D01*
X0065Y00605*
X00755*
X00855*
X00857Y00607*
X00957*
X0096Y0061*
X01075*
X0119*
X013Y0072*
X0229*
X023Y0073*
X02515*
X02525Y0072*
X02705*
X01485Y00925D02*
X0156Y0085D01*
X01305Y00925D02*
X01485D01*
X00473Y01551D02*
X00515Y0151D01*
X00197Y01551D02*
X00473D01*
X00181Y01535D02*
X00197Y01551D01*
X0014Y01535D02*
X00181D01*
X00115Y0151D02*
X0014Y01535D01*
X0012Y01179D02*
X0014Y0116D01*
X0012Y01179D02*
Y01504D01*
X00115Y0151D02*
X0012Y01504D01*
X0024Y0126D02*
X00315Y01335D01*
Y0151*
X0086Y0085D02*
X0098Y0097D01*
X01515*
X01705Y00095D02*
X0175Y0005D01*
X00631Y00095D02*
X01705D01*
X00595Y00058D02*
X00631Y00095D01*
X00558Y00058D02*
X00595D01*
X0055Y0005D02*
X00558Y00058D01*
X01615Y0151D02*
X01945Y01179D01*
X0229*
X02295Y01184*
X0251*
X02515Y01189*
X0252Y01184*
X027*
X02705Y01179*
X028Y00705D02*
Y01084D01*
X02705Y01179D02*
X028Y01084D01*
X02705Y0061D02*
X028Y00705D01*
X02705Y00534D02*
Y0061D01*
X027Y00539D02*
X02705Y00534D01*
X0251Y00539D02*
X027D01*
X02505Y00544D02*
X0251Y00539D01*
X02295D02*
X02297Y00541D01*
X02502*
X02505Y00544*
X0175Y0005D02*
X02239Y00539D01*
X02295*
X00525Y0151D02*
X0061Y01425D01*
X00515Y0151D02*
X00525D01*
X0061Y01425D02*
X0153D01*
X01615Y0151*
G54D16*
X0014Y0116D03*
G54D17*
X0034Y0116D03*
X0024Y0126D03*
G54D18*
X00115Y0151D03*
G54D19*
X00215Y0151D03*
X00315D03*
X00415D03*
X00515D03*
X00615D03*
X00715D03*
X00815D03*
X00915D03*
X01015D03*
X01115D03*
X01215D03*
X01315D03*
X01415D03*
X01515D03*
X01615D03*
X02295Y00539D03*
X02505Y00544D03*
X02705Y00534D03*
Y01179D03*
X02515Y01189D03*
X0229Y01179D03*
G54D20*
X01515Y0097D03*
Y0137D03*
X0119Y0061D03*
Y0021D03*
X01075Y0061D03*
Y0021D03*
X0096Y0061D03*
Y0021D03*
X00855Y00605D03*
Y00205D03*
X00755Y00605D03*
Y00205D03*
X0065Y00605D03*
Y00205D03*
G54D21*
X02295Y0008D03*
X02505Y00085D03*
X02705Y00075D03*
Y0072D03*
X02515Y0073D03*
X0229Y0072D03*
G54D22*
X0066Y0085D03*
X0076D03*
X0086D03*
X0096D03*
X0106D03*
X0116D03*
X0126D03*
X0136D03*
X0146D03*
X0156D03*
X0166D03*
X0176D03*
X0175Y0005D03*
X0165D03*
X0155D03*
X0145D03*
X0135D03*
X0125D03*
X0115D03*
X0105D03*
X0095D03*
X0085D03*
X0075D03*
X0065D03*
X0055D03*
X0045D03*
X0035D03*
X0025D03*
G54D23*
X0155Y00355D03*
X0184Y00645D03*
X01815Y0143D03*
X0181Y00365D03*
X01955Y006D03*
X01305Y00925D03*
M02*