G04*
G04 #@! TF.GenerationSoftware,Altium Limited,Altium Designer,19.1.7 (138)*
G04*
G04 Layer_Color=2752767*
%FSLAX25Y25*%
%MOIN*%
G70*
G01*
G75*
%ADD33C,0.00200*%
%ADD34C,0.00267*%
D33*
X13200Y115200D02*
Y116800D01*
X14800D01*
Y115200D01*
X13200D01*
X33200D02*
Y116800D01*
X34800D01*
Y115200D01*
X33200D01*
X23200Y125200D02*
Y126800D01*
X24800D01*
Y125200D01*
X23200D01*
X151500Y96200D02*
X150700Y97800D01*
X152300D01*
X151500Y96200D01*
Y136200D02*
X150700Y137800D01*
X152300D01*
X151500Y136200D01*
X119000Y60200D02*
X118200Y61800D01*
X119800D01*
X119000Y60200D01*
Y20200D02*
X118200Y21800D01*
X119800D01*
X119000Y20200D01*
X107500Y60200D02*
X106700Y61800D01*
X108300D01*
X107500Y60200D01*
Y20200D02*
X106700Y21800D01*
X108300D01*
X107500Y20200D01*
X96000Y60200D02*
X95200Y61800D01*
X96800D01*
X96000Y60200D01*
Y20200D02*
X95200Y21800D01*
X96800D01*
X96000Y20200D01*
X85500Y59700D02*
X84700Y61300D01*
X86300D01*
X85500Y59700D01*
Y19700D02*
X84700Y21300D01*
X86300D01*
X85500Y19700D01*
X75500Y59700D02*
X74700Y61300D01*
X76300D01*
X75500Y59700D01*
Y19700D02*
X74700Y21300D01*
X76300D01*
X75500Y19700D01*
X65000Y59700D02*
X64200Y61300D01*
X65800D01*
X65000Y59700D01*
Y19700D02*
X64200Y21300D01*
X65800D01*
X65000Y19700D01*
X66000Y84200D02*
X66400Y84600D01*
X66800D01*
X66400Y85000D01*
X66800Y85400D01*
X66400D01*
X66000Y85800D01*
X65600Y85400D01*
X65200D01*
X65600Y85000D01*
X65200Y84600D01*
X65600D01*
X66000Y84200D01*
X76000D02*
X76400Y84600D01*
X76800D01*
X76400Y85000D01*
X76800Y85400D01*
X76400D01*
X76000Y85800D01*
X75600Y85400D01*
X75200D01*
X75600Y85000D01*
X75200Y84600D01*
X75600D01*
X76000Y84200D01*
X86000D02*
X86400Y84600D01*
X86800D01*
X86400Y85000D01*
X86800Y85400D01*
X86400D01*
X86000Y85800D01*
X85600Y85400D01*
X85200D01*
X85600Y85000D01*
X85200Y84600D01*
X85600D01*
X86000Y84200D01*
X96000D02*
X96400Y84600D01*
X96800D01*
X96400Y85000D01*
X96800Y85400D01*
X96400D01*
X96000Y85800D01*
X95600Y85400D01*
X95200D01*
X95600Y85000D01*
X95200Y84600D01*
X95600D01*
X96000Y84200D01*
X106000D02*
X106400Y84600D01*
X106800D01*
X106400Y85000D01*
X106800Y85400D01*
X106400D01*
X106000Y85800D01*
X105600Y85400D01*
X105200D01*
X105600Y85000D01*
X105200Y84600D01*
X105600D01*
X106000Y84200D01*
X116000D02*
X116400Y84600D01*
X116800D01*
X116400Y85000D01*
X116800Y85400D01*
X116400D01*
X116000Y85800D01*
X115600Y85400D01*
X115200D01*
X115600Y85000D01*
X115200Y84600D01*
X115600D01*
X116000Y84200D01*
X126000D02*
X126400Y84600D01*
X126800D01*
X126400Y85000D01*
X126800Y85400D01*
X126400D01*
X126000Y85800D01*
X125600Y85400D01*
X125200D01*
X125600Y85000D01*
X125200Y84600D01*
X125600D01*
X126000Y84200D01*
X136000D02*
X136400Y84600D01*
X136800D01*
X136400Y85000D01*
X136800Y85400D01*
X136400D01*
X136000Y85800D01*
X135600Y85400D01*
X135200D01*
X135600Y85000D01*
X135200Y84600D01*
X135600D01*
X136000Y84200D01*
X146000D02*
X146400Y84600D01*
X146800D01*
X146400Y85000D01*
X146800Y85400D01*
X146400D01*
X146000Y85800D01*
X145600Y85400D01*
X145200D01*
X145600Y85000D01*
X145200Y84600D01*
X145600D01*
X146000Y84200D01*
X156000D02*
X156400Y84600D01*
X156800D01*
X156400Y85000D01*
X156800Y85400D01*
X156400D01*
X156000Y85800D01*
X155600Y85400D01*
X155200D01*
X155600Y85000D01*
X155200Y84600D01*
X155600D01*
X156000Y84200D01*
X166000D02*
X166400Y84600D01*
X166800D01*
X166400Y85000D01*
X166800Y85400D01*
X166400D01*
X166000Y85800D01*
X165600Y85400D01*
X165200D01*
X165600Y85000D01*
X165200Y84600D01*
X165600D01*
X166000Y84200D01*
X176000D02*
X176400Y84600D01*
X176800D01*
X176400Y85000D01*
X176800Y85400D01*
X176400D01*
X176000Y85800D01*
X175600Y85400D01*
X175200D01*
X175600Y85000D01*
X175200Y84600D01*
X175600D01*
X176000Y84200D01*
X175000Y4200D02*
X175400Y4600D01*
X175800D01*
X175400Y5000D01*
X175800Y5400D01*
X175400D01*
X175000Y5800D01*
X174600Y5400D01*
X174200D01*
X174600Y5000D01*
X174200Y4600D01*
X174600D01*
X175000Y4200D01*
X165000D02*
X165400Y4600D01*
X165800D01*
X165400Y5000D01*
X165800Y5400D01*
X165400D01*
X165000Y5800D01*
X164600Y5400D01*
X164200D01*
X164600Y5000D01*
X164200Y4600D01*
X164600D01*
X165000Y4200D01*
X155000D02*
X155400Y4600D01*
X155800D01*
X155400Y5000D01*
X155800Y5400D01*
X155400D01*
X155000Y5800D01*
X154600Y5400D01*
X154200D01*
X154600Y5000D01*
X154200Y4600D01*
X154600D01*
X155000Y4200D01*
X145000D02*
X145400Y4600D01*
X145800D01*
X145400Y5000D01*
X145800Y5400D01*
X145400D01*
X145000Y5800D01*
X144600Y5400D01*
X144200D01*
X144600Y5000D01*
X144200Y4600D01*
X144600D01*
X145000Y4200D01*
X135000D02*
X135400Y4600D01*
X135800D01*
X135400Y5000D01*
X135800Y5400D01*
X135400D01*
X135000Y5800D01*
X134600Y5400D01*
X134200D01*
X134600Y5000D01*
X134200Y4600D01*
X134600D01*
X135000Y4200D01*
X125000D02*
X125400Y4600D01*
X125800D01*
X125400Y5000D01*
X125800Y5400D01*
X125400D01*
X125000Y5800D01*
X124600Y5400D01*
X124200D01*
X124600Y5000D01*
X124200Y4600D01*
X124600D01*
X125000Y4200D01*
X115000D02*
X115400Y4600D01*
X115800D01*
X115400Y5000D01*
X115800Y5400D01*
X115400D01*
X115000Y5800D01*
X114600Y5400D01*
X114200D01*
X114600Y5000D01*
X114200Y4600D01*
X114600D01*
X115000Y4200D01*
X105000D02*
X105400Y4600D01*
X105800D01*
X105400Y5000D01*
X105800Y5400D01*
X105400D01*
X105000Y5800D01*
X104600Y5400D01*
X104200D01*
X104600Y5000D01*
X104200Y4600D01*
X104600D01*
X105000Y4200D01*
X95000D02*
X95400Y4600D01*
X95800D01*
X95400Y5000D01*
X95800Y5400D01*
X95400D01*
X95000Y5800D01*
X94600Y5400D01*
X94200D01*
X94600Y5000D01*
X94200Y4600D01*
X94600D01*
X95000Y4200D01*
X85000D02*
X85400Y4600D01*
X85800D01*
X85400Y5000D01*
X85800Y5400D01*
X85400D01*
X85000Y5800D01*
X84600Y5400D01*
X84200D01*
X84600Y5000D01*
X84200Y4600D01*
X84600D01*
X85000Y4200D01*
X75000D02*
X75400Y4600D01*
X75800D01*
X75400Y5000D01*
X75800Y5400D01*
X75400D01*
X75000Y5800D01*
X74600Y5400D01*
X74200D01*
X74600Y5000D01*
X74200Y4600D01*
X74600D01*
X75000Y4200D01*
X65000D02*
X65400Y4600D01*
X65800D01*
X65400Y5000D01*
X65800Y5400D01*
X65400D01*
X65000Y5800D01*
X64600Y5400D01*
X64200D01*
X64600Y5000D01*
X64200Y4600D01*
X64600D01*
X65000Y4200D01*
X55000D02*
X55400Y4600D01*
X55800D01*
X55400Y5000D01*
X55800Y5400D01*
X55400D01*
X55000Y5800D01*
X54600Y5400D01*
X54200D01*
X54600Y5000D01*
X54200Y4600D01*
X54600D01*
X55000Y4200D01*
X45000D02*
X45400Y4600D01*
X45800D01*
X45400Y5000D01*
X45800Y5400D01*
X45400D01*
X45000Y5800D01*
X44600Y5400D01*
X44200D01*
X44600Y5000D01*
X44200Y4600D01*
X44600D01*
X45000Y4200D01*
X35000D02*
X35400Y4600D01*
X35800D01*
X35400Y5000D01*
X35800Y5400D01*
X35400D01*
X35000Y5800D01*
X34600Y5400D01*
X34200D01*
X34600Y5000D01*
X34200Y4600D01*
X34600D01*
X35000Y4200D01*
X25000D02*
X25400Y4600D01*
X25800D01*
X25400Y5000D01*
X25800Y5400D01*
X25400D01*
X25000Y5800D01*
X24600Y5400D01*
X24200D01*
X24600Y5000D01*
X24200Y4600D01*
X24600D01*
X25000Y4200D01*
X154200Y34700D02*
X154600Y35500D01*
X154200Y36300D01*
X155000Y35900D01*
X155800Y36300D01*
X155400Y35500D01*
X155800Y34700D01*
X155000Y35100D01*
X154200Y34700D01*
X183200Y63700D02*
X183600Y64500D01*
X183200Y65300D01*
X184000Y64900D01*
X184800Y65300D01*
X184400Y64500D01*
X184800Y63700D01*
X184000Y64100D01*
X183200Y63700D01*
X180700Y142200D02*
X181100Y143000D01*
X180700Y143800D01*
X181500Y143400D01*
X182300Y143800D01*
X181900Y143000D01*
X182300Y142200D01*
X181500Y142600D01*
X180700Y142200D01*
X180200Y35700D02*
X180600Y36500D01*
X180200Y37300D01*
X181000Y36900D01*
X181800Y37300D01*
X181400Y36500D01*
X181800Y35700D01*
X181000Y36100D01*
X180200Y35700D01*
X194700Y59200D02*
X195100Y60000D01*
X194700Y60800D01*
X195500Y60400D01*
X196300Y60800D01*
X195900Y60000D01*
X196300Y59200D01*
X195500Y59600D01*
X194700Y59200D01*
X129700Y91700D02*
X130100Y92500D01*
X129700Y93300D01*
X130500Y92900D01*
X131300Y93300D01*
X130900Y92500D01*
X131300Y91700D01*
X130500Y92100D01*
X129700Y91700D01*
D34*
X12300Y151000D02*
G03*
X12300Y151000I-800J0D01*
G01*
X22300D02*
G03*
X22300Y151000I-800J0D01*
G01*
X32300D02*
G03*
X32300Y151000I-800J0D01*
G01*
X42300D02*
G03*
X42300Y151000I-800J0D01*
G01*
X52300D02*
G03*
X52300Y151000I-800J0D01*
G01*
X62300D02*
G03*
X62300Y151000I-800J0D01*
G01*
X72300D02*
G03*
X72300Y151000I-800J0D01*
G01*
X82300D02*
G03*
X82300Y151000I-800J0D01*
G01*
X92300D02*
G03*
X92300Y151000I-800J0D01*
G01*
X102300D02*
G03*
X102300Y151000I-800J0D01*
G01*
X112300D02*
G03*
X112300Y151000I-800J0D01*
G01*
X122300D02*
G03*
X122300Y151000I-800J0D01*
G01*
X132300D02*
G03*
X132300Y151000I-800J0D01*
G01*
X142300D02*
G03*
X142300Y151000I-800J0D01*
G01*
X152300D02*
G03*
X152300Y151000I-800J0D01*
G01*
X162300D02*
G03*
X162300Y151000I-800J0D01*
G01*
X230300Y53933D02*
G03*
X230300Y53933I-800J0D01*
G01*
Y8067D02*
G03*
X230300Y8067I-800J0D01*
G01*
X251300Y54433D02*
G03*
X251300Y54433I-800J0D01*
G01*
Y8567D02*
G03*
X251300Y8567I-800J0D01*
G01*
X271300Y53433D02*
G03*
X271300Y53433I-800J0D01*
G01*
Y7567D02*
G03*
X271300Y7567I-800J0D01*
G01*
Y117933D02*
G03*
X271300Y117933I-800J0D01*
G01*
Y72067D02*
G03*
X271300Y72067I-800J0D01*
G01*
X252300Y118933D02*
G03*
X252300Y118933I-800J0D01*
G01*
Y73067D02*
G03*
X252300Y73067I-800J0D01*
G01*
X229800Y117933D02*
G03*
X229800Y117933I-800J0D01*
G01*
Y72067D02*
G03*
X229800Y72067I-800J0D01*
G01*
M02*
