G04*
G04 #@! TF.GenerationSoftware,Altium Limited,Altium Designer,19.1.7 (138)*
G04*
G04 Layer_Color=16711935*
%FSLAX25Y25*%
%MOIN*%
G70*
G01*
G75*
%ADD15R,0.05124X0.05124*%
%ADD16C,0.05124*%
%ADD17R,0.06306X0.06306*%
%ADD18C,0.06306*%
%ADD19C,0.05912*%
%ADD20R,0.06306X0.06306*%
%ADD21C,0.07000*%
%ADD22C,0.05400*%
D15*
X14000Y116000D02*
D03*
D16*
X34000D02*
D03*
X24000Y126000D02*
D03*
D17*
X11500Y151000D02*
D03*
D18*
X21500D02*
D03*
X31500D02*
D03*
X41500D02*
D03*
X51500D02*
D03*
X61500D02*
D03*
X71500D02*
D03*
X81500D02*
D03*
X91500D02*
D03*
X101500D02*
D03*
X111500D02*
D03*
X121500D02*
D03*
X131500D02*
D03*
X141500D02*
D03*
X151500D02*
D03*
X161500D02*
D03*
X229500Y53933D02*
D03*
X250500Y54433D02*
D03*
X270500Y53433D02*
D03*
Y117933D02*
D03*
X251500Y118933D02*
D03*
X229000Y117933D02*
D03*
D19*
X151500Y97000D02*
D03*
Y137000D02*
D03*
X119000Y61000D02*
D03*
Y21000D02*
D03*
X107500Y61000D02*
D03*
Y21000D02*
D03*
X96000Y61000D02*
D03*
Y21000D02*
D03*
X85500Y60500D02*
D03*
Y20500D02*
D03*
X75500Y60500D02*
D03*
Y20500D02*
D03*
X65000Y60500D02*
D03*
Y20500D02*
D03*
D20*
X229500Y8067D02*
D03*
X250500Y8567D02*
D03*
X270500Y7567D02*
D03*
Y72067D02*
D03*
X251500Y73067D02*
D03*
X229000Y72067D02*
D03*
D21*
X66000Y85000D02*
D03*
X76000D02*
D03*
X86000D02*
D03*
X96000D02*
D03*
X106000D02*
D03*
X116000D02*
D03*
X126000D02*
D03*
X136000D02*
D03*
X146000D02*
D03*
X156000D02*
D03*
X166000D02*
D03*
X176000D02*
D03*
X175000Y5000D02*
D03*
X165000D02*
D03*
X155000D02*
D03*
X145000D02*
D03*
X135000D02*
D03*
X125000D02*
D03*
X115000D02*
D03*
X105000D02*
D03*
X95000D02*
D03*
X85000D02*
D03*
X75000D02*
D03*
X65000D02*
D03*
X55000D02*
D03*
X45000D02*
D03*
X35000D02*
D03*
X25000D02*
D03*
D22*
X155000Y35500D02*
D03*
X184000Y64500D02*
D03*
X181500Y143000D02*
D03*
X181000Y36500D02*
D03*
X195500Y60000D02*
D03*
X130500Y92500D02*
D03*
M02*
