G04*
G04 #@! TF.GenerationSoftware,Altium Limited,Altium Designer,19.1.7 (138)*
G04*
G04 Layer_Physical_Order=1*
G04 Layer_Color=255*
%FSLAX25Y25*%
%MOIN*%
G70*
G01*
G75*
%ADD13C,0.01000*%
%ADD23C,0.00800*%
%ADD24R,0.04724X0.04724*%
%ADD25C,0.04724*%
%ADD26R,0.05906X0.05906*%
%ADD27C,0.05906*%
%ADD28C,0.05512*%
%ADD29R,0.05906X0.05906*%
%ADD30C,0.06600*%
%ADD31C,0.05000*%
D13*
X76000Y82000D02*
Y85000D01*
X25000Y5000D02*
X28000D01*
X25000D02*
X25500D01*
X156000Y83000D02*
Y85000D01*
X135000D02*
X136000D01*
X75000Y5000D02*
X78000D01*
X85000D02*
X88000D01*
X85000D02*
X86000D01*
X145000D02*
Y7500D01*
X135000Y5000D02*
X137000D01*
D23*
X155000Y35500D02*
X184000Y64500D01*
X169500Y156000D02*
X182000Y143500D01*
X136500Y156000D02*
X169500D01*
X181000Y36500D02*
X195500Y51000D01*
Y60000D01*
X131500Y151000D02*
X136500Y156000D01*
X35000Y5000D02*
Y30500D01*
X65000Y60500D01*
X75500D01*
X85500D01*
X85750Y60750D01*
X95750D01*
X96000Y61000D01*
X107500D01*
X119000D01*
X130067Y72067D01*
X229000D01*
X230000Y73067D01*
X251500D01*
X252500Y72067D01*
X270500D01*
X148500Y92500D02*
X156000Y85000D01*
X130500Y92500D02*
X148500D01*
X47347Y155153D02*
X51500Y151000D01*
X19780Y155153D02*
X47347D01*
X18180Y153553D02*
X19780Y155153D01*
X14053Y153553D02*
X18180D01*
X11500Y151000D02*
X14053Y153553D01*
X12038Y117962D02*
X14000Y116000D01*
X12038Y117962D02*
Y150462D01*
X11500Y151000D02*
X12038Y150462D01*
X24000Y126000D02*
X31500Y133500D01*
Y151000D01*
X86000Y85000D02*
X98000Y97000D01*
X151500D01*
X170500Y9500D02*
X175000Y5000D01*
X63136Y9500D02*
X170500D01*
X59500Y5864D02*
X63136Y9500D01*
X55864Y5864D02*
X59500D01*
X55000Y5000D02*
X55864Y5864D01*
X161500Y151000D02*
X194567Y117933D01*
X229000D01*
X229500Y118433D01*
X251000D01*
X251500Y118933D01*
X252000Y118433D01*
X270000D01*
X270500Y117933D01*
X280000Y70500D02*
Y108433D01*
X270500Y117933D02*
X280000Y108433D01*
X270500Y61000D02*
X280000Y70500D01*
X270500Y53433D02*
Y61000D01*
X270000Y53933D02*
X270500Y53433D01*
X251000Y53933D02*
X270000D01*
X250500Y54433D02*
X251000Y53933D01*
X229500D02*
X229750Y54183D01*
X250250D01*
X250500Y54433D01*
X175000Y5000D02*
X223933Y53933D01*
X229500D01*
X52500Y151000D02*
X61000Y142500D01*
X51500Y151000D02*
X52500D01*
X61000Y142500D02*
X153000D01*
X161500Y151000D01*
D24*
X14000Y116000D02*
D03*
D25*
X34000D02*
D03*
X24000Y126000D02*
D03*
D26*
X11500Y151000D02*
D03*
D27*
X21500D02*
D03*
X31500D02*
D03*
X41500D02*
D03*
X51500D02*
D03*
X61500D02*
D03*
X71500D02*
D03*
X81500D02*
D03*
X91500D02*
D03*
X101500D02*
D03*
X111500D02*
D03*
X121500D02*
D03*
X131500D02*
D03*
X141500D02*
D03*
X151500D02*
D03*
X161500D02*
D03*
X229500Y53933D02*
D03*
X250500Y54433D02*
D03*
X270500Y53433D02*
D03*
Y117933D02*
D03*
X251500Y118933D02*
D03*
X229000Y117933D02*
D03*
D28*
X151500Y97000D02*
D03*
Y137000D02*
D03*
X119000Y61000D02*
D03*
Y21000D02*
D03*
X107500Y61000D02*
D03*
Y21000D02*
D03*
X96000Y61000D02*
D03*
Y21000D02*
D03*
X85500Y60500D02*
D03*
Y20500D02*
D03*
X75500Y60500D02*
D03*
Y20500D02*
D03*
X65000Y60500D02*
D03*
Y20500D02*
D03*
D29*
X229500Y8067D02*
D03*
X250500Y8567D02*
D03*
X270500Y7567D02*
D03*
Y72067D02*
D03*
X251500Y73067D02*
D03*
X229000Y72067D02*
D03*
D30*
X66000Y85000D02*
D03*
X76000D02*
D03*
X86000D02*
D03*
X96000D02*
D03*
X106000D02*
D03*
X116000D02*
D03*
X126000D02*
D03*
X136000D02*
D03*
X146000D02*
D03*
X156000D02*
D03*
X166000D02*
D03*
X176000D02*
D03*
X175000Y5000D02*
D03*
X165000D02*
D03*
X155000D02*
D03*
X145000D02*
D03*
X135000D02*
D03*
X125000D02*
D03*
X115000D02*
D03*
X105000D02*
D03*
X95000D02*
D03*
X85000D02*
D03*
X75000D02*
D03*
X65000D02*
D03*
X55000D02*
D03*
X45000D02*
D03*
X35000D02*
D03*
X25000D02*
D03*
D31*
X155000Y35500D02*
D03*
X184000Y64500D02*
D03*
X181500Y143000D02*
D03*
X181000Y36500D02*
D03*
X195500Y60000D02*
D03*
X130500Y92500D02*
D03*
M02*
