%FSTAX23Y23*%
%MOIN*%
%SFA1B1*%

%IPPOS*%
%ADD11C,0.010000*%
%ADD15C,0.008000*%
%ADD16R,0.047240X0.047240*%
%ADD17C,0.047240*%
%ADD18R,0.059060X0.059060*%
%ADD19C,0.059060*%
%ADD20C,0.055120*%
%ADD21R,0.059060X0.059060*%
%ADD22C,0.066000*%
%ADD23C,0.050000*%
%LNadafruit_feather_m0_adalogger-1*%
%LPD*%
G54D11*
X01255Y00845D02*
X0126Y0085D01*
X0143D02*
X0146D01*
X0136Y00845D02*
Y0085D01*
X01635D02*
X0166D01*
X0094D02*
X0096D01*
X0045Y0005D02*
Y00065D01*
Y0005D02*
Y0007D01*
X01135Y0005D02*
X0115D01*
G54D15*
X0155Y0005D02*
Y00355D01*
X01815Y0067D02*
X0184Y00645D01*
X01815Y0067D02*
Y0143D01*
X0165Y0005D02*
X0181Y0021D01*
Y00365*
X01955Y006D02*
Y01425D01*
X01815Y01565D02*
X01955Y01425D01*
X0147Y01565D02*
X01815D01*
X01415Y0151D02*
X0147Y01565D01*
X0119Y0061D02*
X01765D01*
X02295Y0008*
X025*
X02505Y00085*
X02515Y00075*
X02705*
X01215Y01095D02*
X0146Y0085D01*
X01215Y01095D02*
Y0151D01*
X01115Y01115D02*
X01305Y00925D01*
X01115Y01115D02*
Y0151D01*
X01515Y0137D02*
Y0151D01*
X0116Y0085D02*
Y00965D01*
X00615Y0151D02*
X0116Y00965D01*
X0106Y0085D02*
Y00857D01*
X00415Y01502D02*
X0106Y00857D01*
X00415Y01502D02*
Y0151D01*
X00221Y01468D02*
X00285Y01405D01*
X00221Y01468D02*
Y01503D01*
X00215Y0151D02*
X00221Y01503D01*
X00285Y01215D02*
Y01405D01*
Y01215D02*
X0034Y0116D01*
X00513*
X00815Y00858*
X00851*
X0086Y0085*
X00315Y01501D02*
Y0151D01*
G54D16*
X0014Y0116D03*
G54D17*
X0034Y0116D03*
X0024Y0126D03*
G54D18*
X00115Y0151D03*
G54D19*
X00215Y0151D03*
X00315D03*
X00415D03*
X00515D03*
X00615D03*
X00715D03*
X00815D03*
X00915D03*
X01015D03*
X01115D03*
X01215D03*
X01315D03*
X01415D03*
X01515D03*
X01615D03*
X02295Y00539D03*
X02505Y00544D03*
X02705Y00534D03*
Y01179D03*
X02515Y01189D03*
X0229Y01179D03*
G54D20*
X01515Y0097D03*
Y0137D03*
X0119Y0061D03*
Y0021D03*
X01075Y0061D03*
Y0021D03*
X0096Y0061D03*
Y0021D03*
X00855Y00605D03*
Y00205D03*
X00755Y00605D03*
Y00205D03*
X0065Y00605D03*
Y00205D03*
G54D21*
X02295Y0008D03*
X02505Y00085D03*
X02705Y00075D03*
Y0072D03*
X02515Y0073D03*
X0229Y0072D03*
G54D22*
X0066Y0085D03*
X0076D03*
X0086D03*
X0096D03*
X0106D03*
X0116D03*
X0126D03*
X0136D03*
X0146D03*
X0156D03*
X0166D03*
X0176D03*
X0175Y0005D03*
X0165D03*
X0155D03*
X0145D03*
X0135D03*
X0125D03*
X0115D03*
X0105D03*
X0095D03*
X0085D03*
X0075D03*
X0065D03*
X0055D03*
X0045D03*
X0035D03*
X0025D03*
G54D23*
X0155Y00355D03*
X0184Y00645D03*
X01815Y0143D03*
X0181Y00365D03*
X01955Y006D03*
X01305Y00925D03*
M02*