%FSTAX23Y23*%
%MOIN*%
%SFA1B1*%

%IPPOS*%
%ADD25C,0.002000*%
%LNadafruit_feather_m0_adalogger-1*%
%LPD*%
G54D25*
X00126Y0116D02*
X00153D01*
X0014Y01146D02*
Y01173D01*
X00326Y0116D02*
X00353D01*
X0034Y01146D02*
Y01173D01*
X00226Y0126D02*
X00253D01*
X0024Y01246D02*
Y01273D01*
X00097Y0151D02*
X00132D01*
X00115Y01492D02*
Y01527D01*
X00197Y0151D02*
X00232D01*
X00215Y01492D02*
Y01527D01*
X00297Y0151D02*
X00332D01*
X00315Y01492D02*
Y01527D01*
X00397Y0151D02*
X00432D01*
X00415Y01492D02*
Y01527D01*
X00497Y0151D02*
X00532D01*
X00515Y01492D02*
Y01527D01*
X00597Y0151D02*
X00632D01*
X00615Y01492D02*
Y01527D01*
X00697Y0151D02*
X00732D01*
X00715Y01492D02*
Y01527D01*
X00797Y0151D02*
X00832D01*
X00815Y01492D02*
Y01527D01*
X00897Y0151D02*
X00932D01*
X00915Y01492D02*
Y01527D01*
X00997Y0151D02*
X01032D01*
X01015Y01492D02*
Y01527D01*
X01097Y0151D02*
X01132D01*
X01115Y01492D02*
Y01527D01*
X01197Y0151D02*
X01232D01*
X01215Y01492D02*
Y01527D01*
X01297Y0151D02*
X01332D01*
X01315Y01492D02*
Y01527D01*
X01397Y0151D02*
X01432D01*
X01415Y01492D02*
Y01527D01*
X01497Y0151D02*
X01532D01*
X01515Y01492D02*
Y01527D01*
X01597Y0151D02*
X01632D01*
X01615Y01492D02*
Y01527D01*
X01498Y0097D02*
X01531D01*
X01515Y00953D02*
Y00986D01*
X01498Y0137D02*
X01531D01*
X01515Y01353D02*
Y01386D01*
X02277Y00539D02*
X02312D01*
X02295Y00521D02*
Y00557D01*
X02277Y0008D02*
X02312D01*
X02295Y00062D02*
Y00098D01*
X02487Y00544D02*
X02522D01*
X02505Y00526D02*
Y00562D01*
X02487Y00085D02*
X02522D01*
X02505Y00067D02*
Y00103D01*
X02687Y00534D02*
X02722D01*
X02705Y00516D02*
Y00552D01*
X02687Y00075D02*
X02722D01*
X02705Y00057D02*
Y00093D01*
X02687Y01179D02*
X02722D01*
X02705Y01161D02*
Y01197D01*
X02687Y0072D02*
X02722D01*
X02705Y00702D02*
Y00738D01*
X02497Y01189D02*
X02532D01*
X02515Y01171D02*
Y01207D01*
X02497Y0073D02*
X02532D01*
X02515Y00712D02*
Y00748D01*
X02272Y01179D02*
X02307D01*
X0229Y01161D02*
Y01197D01*
X02272Y0072D02*
X02307D01*
X0229Y00702D02*
Y00738D01*
X01173Y0061D02*
X01206D01*
X0119Y00593D02*
Y00626D01*
X01173Y0021D02*
X01206D01*
X0119Y00193D02*
Y00226D01*
X01058Y0061D02*
X01091D01*
X01075Y00593D02*
Y00626D01*
X01058Y0021D02*
X01091D01*
X01075Y00193D02*
Y00226D01*
X00943Y0061D02*
X00976D01*
X0096Y00593D02*
Y00626D01*
X00943Y0021D02*
X00976D01*
X0096Y00193D02*
Y00226D01*
X00838Y00605D02*
X00871D01*
X00855Y00588D02*
Y00621D01*
X00838Y00205D02*
X00871D01*
X00855Y00188D02*
Y00221D01*
X00738Y00605D02*
X00771D01*
X00755Y00588D02*
Y00621D01*
X00738Y00205D02*
X00771D01*
X00755Y00188D02*
Y00221D01*
X00633Y00605D02*
X00666D01*
X0065Y00588D02*
Y00621D01*
X00633Y00205D02*
X00666D01*
X0065Y00188D02*
Y00221D01*
X0064Y0085D02*
X00679D01*
X0066Y0083D02*
Y00869D01*
X0074Y0085D02*
X00779D01*
X0076Y0083D02*
Y00869D01*
X0084Y0085D02*
X00879D01*
X0086Y0083D02*
Y00869D01*
X0094Y0085D02*
X00979D01*
X0096Y0083D02*
Y00869D01*
X0104Y0085D02*
X01079D01*
X0106Y0083D02*
Y00869D01*
X0114Y0085D02*
X01179D01*
X0116Y0083D02*
Y00869D01*
X0124Y0085D02*
X01279D01*
X0126Y0083D02*
Y00869D01*
X0134Y0085D02*
X01379D01*
X0136Y0083D02*
Y00869D01*
X0144Y0085D02*
X01479D01*
X0146Y0083D02*
Y00869D01*
X0154Y0085D02*
X01579D01*
X0156Y0083D02*
Y00869D01*
X0164Y0085D02*
X01679D01*
X0166Y0083D02*
Y00869D01*
X0174Y0085D02*
X01779D01*
X0176Y0083D02*
Y00869D01*
X0173Y0005D02*
X01769D01*
X0175Y0003D02*
Y00069D01*
X0163Y0005D02*
X01669D01*
X0165Y0003D02*
Y00069D01*
X0153Y0005D02*
X01569D01*
X0155Y0003D02*
Y00069D01*
X0143Y0005D02*
X01469D01*
X0145Y0003D02*
Y00069D01*
X0133Y0005D02*
X01369D01*
X0135Y0003D02*
Y00069D01*
X0123Y0005D02*
X01269D01*
X0125Y0003D02*
Y00069D01*
X0113Y0005D02*
X01169D01*
X0115Y0003D02*
Y00069D01*
X0103Y0005D02*
X01069D01*
X0105Y0003D02*
Y00069D01*
X0093Y0005D02*
X00969D01*
X0095Y0003D02*
Y00069D01*
X0083Y0005D02*
X00869D01*
X0085Y0003D02*
Y00069D01*
X0073Y0005D02*
X00769D01*
X0075Y0003D02*
Y00069D01*
X0063Y0005D02*
X00669D01*
X0065Y0003D02*
Y00069D01*
X0053Y0005D02*
X00569D01*
X0055Y0003D02*
Y00069D01*
X0043Y0005D02*
X00469D01*
X0045Y0003D02*
Y00069D01*
X0033Y0005D02*
X00369D01*
X0035Y0003D02*
Y00069D01*
X0023Y0005D02*
X00269D01*
X0025Y0003D02*
Y00069D01*
X01536Y00355D02*
X01564D01*
X0155Y00341D02*
Y00369D01*
X01826Y00645D02*
X01854D01*
X0184Y00631D02*
Y00659D01*
X01801Y0143D02*
X01829D01*
X01815Y01416D02*
Y01444D01*
X01796Y00365D02*
X01824D01*
X0181Y00351D02*
Y00379D01*
X01941Y006D02*
X01969D01*
X01955Y00586D02*
Y00614D01*
X01291Y00925D02*
X01319D01*
X01305Y00911D02*
Y00939D01*
M02*